<svg xmlns="http://www.w3.org/2000/svg" width="40" height="40" fill="none" viewBox="0 0 40 40"><circle cx="20" cy="20" r="20" fill="#F5F3F0"/><circle cx="20" cy="20" r="13" fill="#F5F3F0"/><path fill="url(#paint0_linear_2_18)" d="M20.0001 13.7617L26.1483 24.4383H13.8557L20.0001 13.7617ZM17.9573 10.183L9.23772 25.3288C8.92076 25.8799 8.92076 26.5584 9.23772 27.1096C9.55545 27.6608 10.1431 28 10.777 28H29.2224C29.8571 28 30.4447 27.6608 30.7617 27.1096C31.0794 26.5584 31.0794 25.8799 30.7617 25.3288L22.0384 10.183C21.6198 9.45369 20.8372 9 20.0001 9C19.1584 9 18.3804 9.45369 17.9573 10.183Z"/><defs><linearGradient id="paint0_linear_2_18" x1="9" x2="30.997" y1="18.499" y2="18.499" gradientUnits="userSpaceOnUse"><stop stop-color="#0172D0"/><stop offset=".064" stop-color="#0181CD"/><stop offset=".223" stop-color="#019FC8"/><stop offset=".39" stop-color="#00B7C3"/><stop offset=".567" stop-color="#00C8C0"/><stop offset=".76" stop-color="#00D2BF"/><stop offset="1" stop-color="#00D5BE"/></linearGradient></defs></svg>